<svg
  width="14"
  height="14"
  viewBox="0 0 14 14"
  fill="none"
  xmlns="http://www.w3.org/2000/svg"
>
  <path
    fill-rule="evenodd"
    clip-rule="evenodd"
    d="M9.64672 0.146654C9.74047 0.0530203 9.86755 0.000427246 10 0.000427246C10.1325 0.000427246 10.2596 0.0530203 10.3534 0.146654L13.3534 3.14665C13.447 3.2404 13.4996 3.36749 13.4996 3.49999C13.4996 3.63249 13.447 3.75957 13.3534 3.85332L10.3534 6.85332C10.3076 6.90245 10.2524 6.94185 10.1911 6.96917C10.1297 6.9965 10.0635 7.0112 9.9964 7.01238C9.92926 7.01357 9.86258 7.00122 9.80032 6.97607C9.73806 6.95092 9.6815 6.91349 9.63402 6.86601C9.58654 6.81853 9.54911 6.76198 9.52397 6.69972C9.49882 6.63746 9.48647 6.57077 9.48765 6.50364C9.48884 6.4365 9.50353 6.3703 9.53086 6.30896C9.55819 6.24763 9.59759 6.19243 9.64672 6.14665L11.7934 3.99999H4.00005C3.86744 3.99999 3.74026 3.94731 3.64649 3.85354C3.55273 3.75977 3.50005 3.6326 3.50005 3.49999C3.50005 3.36738 3.55273 3.2402 3.64649 3.14643C3.74026 3.05267 3.86744 2.99999 4.00005 2.99999H11.7934L9.64672 0.853321C9.55308 0.75957 9.50049 0.632488 9.50049 0.499987C9.50049 0.367487 9.55308 0.240404 9.64672 0.146654ZM4.35338 6.14665C4.44702 6.2404 4.49961 6.36749 4.49961 6.49999C4.49961 6.63249 4.44702 6.75957 4.35338 6.85332L2.20671 8.99999H10C10.1327 8.99999 10.2598 9.05267 10.3536 9.14643C10.4474 9.2402 10.5 9.36738 10.5 9.49999C10.5 9.6326 10.4474 9.75977 10.3536 9.85354C10.2598 9.94731 10.1327 9.99999 10 9.99999H2.20671L4.35338 12.1467C4.40251 12.1924 4.44191 12.2476 4.46924 12.309C4.49656 12.3703 4.51126 12.4365 4.51244 12.5036C4.51363 12.5708 4.50128 12.6375 4.47613 12.6997C4.45098 12.762 4.41355 12.8185 4.36607 12.866C4.31859 12.9135 4.26204 12.9509 4.19978 12.9761C4.13752 13.0012 4.07084 13.0136 4.0037 13.0124C3.93656 13.0112 3.87036 12.9965 3.80902 12.9692C3.74769 12.9418 3.69249 12.9024 3.64671 12.8533L0.646715 9.85332C0.553081 9.75957 0.500488 9.63249 0.500488 9.49999C0.500488 9.36749 0.553081 9.24041 0.646715 9.14665L3.64671 6.14665C3.74047 6.05302 3.86755 6.00043 4.00005 6.00043C4.13255 6.00043 4.25963 6.05302 4.35338 6.14665Z"
    fill="black"
  />
</svg>
